<svg xmlns="http://www.w3.org/2000/svg" width="128" height="128" viewBox="0 0 128 128">
  <path fill="#FFF" d="M30.5704053,14.5305617 C32.1702796,14.5305617 33.4764133,15.7882144 33.5541038,17.3688171 L33.5577598,17.5179162 L33.558477,24.2514678 C38.4922142,25.5684297 42.1262296,30.0684549 42.1262296,35.41725 C42.1262296,40.766045 38.4922142,45.2660702 33.558477,46.5830321 L33.5577598,110.639981 C33.5577598,112.289852 32.2202757,113.627336 30.5704053,113.627336 C28.970531,113.627336 27.6643973,112.369683 27.5867068,110.78908 L27.5830508,110.639981 L27.582857,46.5831718 C22.6488534,45.2663885 19.014581,40.7662341 19.014581,35.41725 C19.014581,30.0682658 22.6488534,25.5681114 27.582857,24.2513281 L27.5830508,17.5179162 C27.5830508,15.8680458 28.920535,14.5305617 30.5704053,14.5305617 Z M64.0776244,14.5305617 C65.6774986,14.5305617 66.9836324,15.7882144 67.0613229,17.3688171 L67.0649789,17.5179162 L67.0650359,74.9535877 C73.6639543,76.3313485 78.6208032,82.1816229 78.6208032,89.1896314 C78.6208032,96.19764 73.6639543,102.047914 67.0650359,103.425675 L67.0649789,110.639981 C67.0649789,112.289852 65.7274947,113.627336 64.0776244,113.627336 C62.4777501,113.627336 61.1716163,112.369683 61.0939258,110.78908 L61.0902698,110.639981 L61.0895226,103.425531 C54.4909488,102.047506 49.5344455,96.1973956 49.5344455,89.1896314 C49.5344455,82.1818672 54.4909488,76.3317564 61.0895226,74.9537318 L61.0902698,17.5179162 C61.0902698,15.8680458 62.427754,14.5305617 64.0776244,14.5305617 Z M97.5848434,14.5305617 C99.1847177,14.5305617 100.490851,15.7882144 100.568542,17.3688171 L100.572198,17.5179162 L100.572915,46.6566267 C105.506652,47.9735886 109.140668,52.4736139 109.140668,57.8224089 C109.140668,63.1712039 105.506652,67.6712292 100.572915,68.9881911 L100.572198,110.639981 C100.572198,112.289852 99.2347138,113.627336 97.5848434,113.627336 C95.9849691,113.627336 94.6788354,112.369683 94.6011449,110.78908 L94.5974889,110.639981 L94.5972951,68.9883308 C89.6632915,67.6715474 86.0290191,63.1713931 86.0290191,57.8224089 C86.0290191,52.4734247 89.6632915,47.9732704 94.5972951,46.656487 L94.5974889,17.5179162 C94.5974889,15.8680458 95.9349731,14.5305617 97.5848434,14.5305617 Z M65.280503,80.7049306 L65.156581,80.6885617 L64.896067,80.6597426 L64.896067,80.6597426 L64.811581,80.6525617 L64.503682,80.6315697 L64.503682,80.6315697 L64.662581,80.6405617 L64.6385376,80.6392277 L64.6385376,80.6392277 L64.4286885,80.6282226 L64.0776244,80.6211616 L63.7250591,80.6282833 L63.688996,80.6298179 L63.688996,80.6298179 L63.6529716,80.631501 L63.358581,80.6515617 L63.268581,80.6585617 L63.205581,80.6655617 L63.058581,80.6815617 L63.037581,80.6835617 L63.043581,80.6825617 L63.058581,80.6815617 L63.107581,80.6755617 L63.0601125,80.6809472 L63.0601125,80.6809472 L63.043581,80.6825617 L63.026581,80.6845617 L62.9746749,80.6914909 L62.9746749,80.6914909 L63.013581,80.6865617 L63.026581,80.6845617 L63.037581,80.6835617 L62.917581,80.6985617 L62.7154811,80.7288359 C62.6295033,80.7425699 62.5439523,80.757583 62.4588482,80.7738549 L62.2048969,80.8264274 L62.200581,80.8265617 L62.166581,80.8345617 L61.9588673,80.8851286 C61.795769,80.9266146 61.6345388,80.9727789 61.4753279,81.0234704 L61.4493073,81.031801 L61.4493073,81.031801 L61.432581,81.0365617 L61.407581,81.0445617 L61.373581,81.0565617 L61.2912554,81.0843981 L61.2912554,81.0843981 L61.1735177,81.1258334 L61.1735177,81.1258334 L61.295581,81.0835617 L61.373581,81.0565617 L61.403581,81.0465617 L61.295581,81.0835617 L61.148581,81.1345617 L60.9275875,81.2187355 C57.7540197,82.4739427 55.5091546,85.5696289 55.5091546,89.1896314 C55.5091546,92.8780578 57.8396849,96.0221597 61.1085305,97.2297221 L61.4229782,97.3389381 C61.4405569,97.3446605 61.4581605,97.3503276 61.4757888,97.3559393 L61.8134548,97.4557775 L61.8134548,97.4557775 L62.1571181,97.5420391 C62.1645579,97.5437433 62.172574,97.5455673 62.1805943,97.54738 L62.5127797,97.61554 L62.5127797,97.61554 L62.87365,97.6741783 L63.029581,97.6935617 L63.2480513,97.7184583 L63.2480513,97.7184583 L63.364581,97.7275617 L63.559581,97.7415617 L63.580581,97.7425617 L63.570581,97.7425617 L63.559581,97.7415617 L63.462581,97.7355617 L63.5167191,97.7400357 L63.5167191,97.7400357 L63.570581,97.7425617 L63.605581,97.7445617 L63.619581,97.7455617 L63.652626,97.747745 L63.652626,97.747745 L63.626581,97.7455617 L63.619581,97.7455617 L63.611581,97.7445617 L63.605581,97.7445617 L63.580581,97.7425617 L63.611581,97.7445617 L63.626581,97.7455617 L63.7250591,97.7509796 L63.7250591,97.7509796 L63.7245432,97.7509587 L64.0776244,97.7581012 L64.4291873,97.7510201 C64.4542452,97.7500089 64.4792754,97.74889 64.5042774,97.747664 L64.7006168,97.7357992 L64.7006168,97.7357992 L64.781581,97.7285617 L64.8468439,97.7240421 L64.8468439,97.7240421 L64.804581,97.7265617 L64.8957425,97.719551 L64.8957425,97.719551 L65.152581,97.6905617 L65.225581,97.6805617 L65.4534253,97.648234 C65.6311593,97.6195478 65.807063,97.5853947 65.9809583,97.5459528 C65.9850589,97.5450226 65.9890503,97.5441142 65.9930407,97.543203 L65.996581,97.5415617 L65.997581,97.5415617 L66.035581,97.5325617 L66.202222,97.4926464 L66.202222,97.4926464 L66.311581,97.4625617 L66.3364973,97.4572205 L66.3364973,97.4572205 L66.322581,97.4595617 L66.363581,97.4485617 L66.417581,97.4335617 L66.441581,97.4265617 L66.429581,97.4305617 L66.417581,97.4335617 L66.4093714,97.4370077 L66.457581,97.4225617 L66.4974203,97.4116506 L66.4974203,97.4116506 L66.542581,97.3975617 L66.478581,97.4155617 L66.457581,97.4225617 L66.441581,97.4265617 L66.478581,97.4155617 L66.630581,97.3705617 L66.704581,97.3465617 L66.775581,97.3225617 L67.033581,97.2335617 L67.2377767,97.156519 C70.4059981,95.8987394 72.6460942,92.8057866 72.6460942,89.1896314 C72.6460942,85.5039082 70.3189785,82.3617119 67.0539035,81.1521988 L66.7432125,81.0438949 C66.7173573,81.0354395 66.6914479,81.0271037 66.6654851,81.0188883 C66.453147,80.9517129 66.2377637,80.8927096 66.0191754,80.8420709 L65.988581,80.8345617 L65.775436,80.7893538 C65.6120909,80.7565197 65.4470653,80.7283308 65.280503,80.7049306 Z"/>
</svg>
