<svg xmlns="http://www.w3.org/2000/svg" width="16" height="16" viewBox="0 0 16 16">
  <path fill="#FFF" d="M3.94788135,1.81632021 C4.21565577,1.81632021 4.43426621,1.9735268 4.44726943,2.17110213 L4.44788135,2.18973952 L4.44877952,3.12571663 C4.9322542,3.35924813 5.2657787,3.85425277 5.2657787,4.42715624 C5.2657787,5.00005971 4.9322542,5.49506436 4.44877952,5.72859586 L4.44788135,13.8299977 C4.44788135,14.0362315 4.22402372,14.203417 3.94788135,14.203417 C3.68010692,14.203417 3.46149649,14.0462104 3.44849326,13.8486351 L3.44835472,5.82302918 C2.83135103,5.65860109 2.37682262,5.09595907 2.37682262,4.42715624 C2.37682262,3.75835342 2.83135103,3.1957114 3.44835472,3.03128331 L3.44788135,2.18973952 C3.44788135,1.98350573 3.67173897,1.81632021 3.94788135,1.81632021 Z M8.13628728,1.81632021 C8.4040617,1.81632021 8.62267214,1.9735268 8.63567536,2.17110213 L8.63628728,2.18973952 L8.63789597,9.44226869 C9.33232795,9.69799473 9.8276004,10.3655108 9.8276004,11.1487039 C9.8276004,11.9318971 9.33232795,12.5994131 8.63789597,12.8551392 L8.63628728,13.8299977 C8.63628728,14.0362315 8.41242965,14.203417 8.13628728,14.203417 C7.86851285,14.203417 7.64990242,14.0462104 7.63689919,13.8486351 L7.63533922,12.9280134 C6.81094243,12.7554352 6.19180569,12.0243731 6.19180569,11.1487039 C6.19180569,10.2733882 6.81044262,9.54256296 7.63434085,9.36960372 L7.63628728,2.18973952 C7.63628728,1.98350573 7.8601449,1.81632021 8.13628728,1.81632021 Z M12.3246861,1.81632021 C12.5924605,1.81632021 12.811071,1.9735268 12.8240742,2.17110213 L12.8246861,2.18973952 L12.8255843,5.92636149 C13.309059,6.159893 13.6425835,6.65489764 13.6425835,7.22780111 C13.6425835,7.80070458 13.309059,8.29570923 12.8255843,8.52924073 L12.8246861,13.8299977 C12.8246861,14.0362315 12.6008285,14.203417 12.3246861,14.203417 C12.0569117,14.203417 11.8383013,14.0462104 11.825298,13.8486351 L11.8251595,8.62367405 C11.2081558,8.45924596 10.7536274,7.89660393 10.7536274,7.22780111 C10.7536274,6.55899829 11.2081558,5.99635627 11.8251595,5.83192818 L11.8246861,2.18973952 C11.8246861,1.98350573 12.0485437,1.81632021 12.3246861,1.81632021 Z M8.06482262,10.0803202 L8.13627717,10.0776452 C7.96275486,10.0776452 7.79643055,10.100662 7.64247911,10.1428306 C7.23144588,10.2926371 6.93864432,10.6864768 6.93864432,11.1487039 C6.93864432,11.570634 7.18261826,11.9355809 7.53718811,12.1101666 L7.63882262,12.1533202 L7.77449802,12.1853908 C7.86904642,12.2037435 7.96738743,12.2150721 8.06846259,12.2185863 C8.63346029,12.1868434 9.08076177,11.7200101 9.08076177,11.1487039 C9.08076177,10.5966098 8.66303845,10.1420802 8.12640669,10.08393 L8.06482262,10.0803202 Z"/>
</svg>
